<?xml version="1.0" encoding="utf-8"?>
<!-- Generator: Adobe Illustrator 26.0.1, SVG Export Plug-In . SVG Version: 6.00 Build 0)  -->
<svg version="1.1" id="Слой_1" xmlns="http://www.w3.org/2000/svg" xmlns:xlink="http://www.w3.org/1999/xlink" x="0px" y="0px"
	 viewBox="0 0 48 48" style="enable-background:new 0 0 48 48;" xml:space="preserve">
<style type="text/css">
	.st0{fill:#0270B5;}
</style>
<path class="st0" d="M12.9,13.2c3.9,0,6.1,2.3,7.4,4.8l0,0.1l-3.2,1.8c-0.7-1.6-2.3-2.9-4.2-2.9c-3,0-5.3,2.8-5.3,6.5
	s2.3,6.5,5.3,6.5c1.9,0,3.5-1.2,4.2-2.8l0-0.1l3.2,1.7c-1.3,2.5-3.4,4.9-7.4,4.9c-5.1,0-9.1-4.1-9.1-10.2S7.8,13.2,12.9,13.2z"/>
<polygon class="st0" points="28.2,14.3 28.2,20.1 32.9,20.1 32.9,22.4 28.2,22.4 28.2,28.4 25.9,28.4 25.9,22.4 21.2,22.4 
	21.2,20.1 25.9,20.1 25.9,14.3 "/>
<polygon class="st0" points="37.7,18.4 37.7,24.2 42.4,24.2 42.4,26.6 37.7,26.6 37.7,32.6 35.4,32.6 35.4,26.6 30.7,26.6 
	30.7,24.2 35.4,24.2 35.4,18.4 "/>
</svg>
