<?xml version="1.0" encoding="utf-8"?>
<!-- Generator: Adobe Illustrator 26.0.1, SVG Export Plug-In . SVG Version: 6.00 Build 0)  -->
<svg version="1.1" id="Слой_1" xmlns="http://www.w3.org/2000/svg" xmlns:xlink="http://www.w3.org/1999/xlink" x="0px" y="0px"
	 viewBox="0 0 24 24" style="enable-background:new 0 0 24 24;" xml:space="preserve">
<style type="text/css">
	.st0{fill:#FFC500;}
	.st1{fill:#FF9F1E;}
	.st2{fill:#FFE059;}
	.st3{fill:#00305F;}
</style>
<g id="Layer_3">
	<ellipse class="st0" cx="12.1" cy="12" rx="10.5" ry="10.8"/>
	<path class="st1" d="M12.8,21.3C7,21.3,2.3,16.5,2.3,10.5c0-1.4,0.3-2.8,0.8-4c-1,1.7-1.5,3.6-1.5,5.6c0,6,4.7,10.8,10.5,10.8
		c4.4,0,8.2-2.8,9.8-6.8C20,19.2,16.6,21.3,12.8,21.3z"/>
	<path class="st2" d="M12.1,1.2C9.8,1.2,7.6,2,5.8,3.4c2.5-1,5.2-1.1,7.8-0.3c0,0,0,0.1-0.1,0.1c-0.3,0.6,0.3,1.6,1.4,2.2
		s2.2,0.6,2.5,0c0-0.1,0.1-0.1,0.1-0.2c2.8,2.3,4.7,5.8,4.7,9.7c0.2-0.9,0.4-1.9,0.4-2.8C22.6,6.1,17.9,1.2,12.1,1.2z"/>
	<ellipse transform="matrix(0.2013 -0.9795 0.9795 0.2013 7.7618 22.089)" class="st2" cx="17.4" cy="6.3" rx="0.5" ry="0.9"/>
	<ellipse transform="matrix(0.5288 -0.8487 0.8487 0.5288 1.7315 16.4179)" class="st2" cx="15.7" cy="6.6" rx="0.3" ry="0.4"/>
	<path class="st3" d="M8,14.1c-0.9,0-1.8-0.3-2.4-1s-1-1.5-1-2.4V9.4C4.6,9,4.7,8.7,5,8.4c0.3-0.3,0.6-0.5,1-0.5
		c1.4-0.2,2.8-0.2,4.1,0c0.4,0.1,0.7,0.2,1,0.5c0.3,0.3,0.4,0.7,0.4,1.1v1.3c0,0.9-0.4,1.7-1,2.4C9.8,13.7,9,14.1,8,14.1z"/>
	<path class="st3" d="M16.1,14.1c-0.9,0-1.8-0.3-2.4-1c-0.7-0.6-1-1.5-1-2.4V9.4c0-0.4,0.1-0.8,0.4-1.1c0.3-0.3,0.6-0.5,1-0.5
		c1.4-0.2,2.8-0.2,4.1,0c0.4,0.1,0.7,0.2,1,0.5c0.3,0.3,0.4,0.7,0.4,1.1v1.3c0,0.9-0.4,1.7-1,2.4C17.8,13.7,17,14.1,16.1,14.1z"/>
	<path class="st3" d="M5.3,9.4c0,0-0.1,0-0.1,0L2.5,8.6C2.2,8.6,2,8.3,2.1,8c0.1-0.3,0.3-0.4,0.6-0.4l2.7,0.7C5.7,8.4,5.9,8.7,5.8,9
		C5.7,9.2,5.5,9.4,5.3,9.4L5.3,9.4z"/>
	<path class="st3" d="M18.8,9.4c-0.3,0-0.5-0.2-0.5-0.5c0-0.2,0.2-0.4,0.4-0.5l2.7-0.7C21.6,7.5,21.9,7.7,22,8
		c0.1,0.3-0.1,0.6-0.3,0.7c0,0,0,0,0,0l-2.7,0.7C18.9,9.4,18.9,9.4,18.8,9.4z"/>
	<path class="st3" d="M10.7,18.2c-0.3,0-0.5,0-0.8-0.1c-1.4-0.5-2.3-2.1-2.3-2.1c-0.1-0.3,0-0.6,0.2-0.7s0.6,0,0.7,0.2
		c0,0,0.3,0.7,0.9,1.2c0.7,0.6,1.4,0.7,2.2,0.3c0.3-0.1,0.6,0,0.7,0.2c0.1,0.3,0,0.6-0.2,0.7C11.6,18,11.2,18.2,10.7,18.2z"/>
	<path class="st3" d="M10.8,9.3c-0.2,0-0.4-0.2-0.4-0.5c0-0.2,0.1-0.3,0.2-0.4c0.5-0.3,0.9-0.4,1.4-0.4c0.5,0,0.9,0.1,1.4,0.4
		c0.2,0.1,0.3,0.4,0.1,0.6c-0.1,0.2-0.4,0.3-0.6,0.1l0,0c-0.6-0.4-1.1-0.4-1.9,0C11,9.3,10.9,9.3,10.8,9.3z"/>
</g>
</svg>
