<?xml version="1.0" encoding="utf-8"?>
<!-- Generator: Adobe Illustrator 26.0.1, SVG Export Plug-In . SVG Version: 6.00 Build 0)  -->
<svg version="1.1" id="Слой_1" xmlns="http://www.w3.org/2000/svg" xmlns:xlink="http://www.w3.org/1999/xlink" x="0px" y="0px"
	 viewBox="0 0 24 24" style="enable-background:new 0 0 24 24;" xml:space="preserve">
<style type="text/css">
	.st0{fill:#FFFFFF;}
	.st1{fill:#C98E00;}
</style>
<polygon class="st0" points="3.7,19 9.3,19 9.3,20.2 7.3,20.7 5.8,20.7 4,20.2 3.1,19.8 "/>
<g transform="translate(0.000000,256.000000) scale(0.100000,-0.100000)">
	<path class="st1" d="M101.5,2437.2c-4.1-1.4-10.2-4.1-13.3-6.1c-3.3-2.1-7.5-4.7-9.4-5.9c-1.9-1.2-5.4-3.9-7.9-6.1
		c-2.5-2.2-6-5.3-7.9-6.9c-6-5-22-21.7-32.9-34.3c-12.9-14.9-13.2-16.4-5-20.5c28.7-14,59.7-13.6,79.5,1.2
		c16.7,12.3,26.8,28.6,29.5,47.8c1.2,8.5,0.6,12.5-2.1,12.5c-6.1,0-14,7.1-17.7,15.6c-1.4,3.2-2.9,5.1-3.9,5
		C109.6,2439.6,105.6,2438.5,101.5,2437.2z M48.2,2366.6c7.9-3.4,19.9-3.4,29.5,0.1c8.2,3,10.5,2.4,10.5-2.7c0-2.8-0.6-3.4-5.5-5.6
		c-12.1-5.2-24.8-5.7-37.3-1c-6.9,2.5-9.3,5.2-7.9,9.1C38.5,2369.6,41.2,2369.6,48.2,2366.6z"/>
</g>
<path class="st0" d="M12.4,11L21,2.2c0.2-0.2,0.5-0.2,0.7,0l0.6,0.6c0.2,0.2,0.2,0.5,0,0.8l-7.9,9.5c-0.2,0.2-0.5,0.2-0.7,0
	l-1.2-1.3C12.2,11.6,12.2,11.2,12.4,11z"/>
</svg>
