<?xml version="1.0" encoding="utf-8"?>
<!-- Generator: Adobe Illustrator 26.0.1, SVG Export Plug-In . SVG Version: 6.00 Build 0)  -->
<svg version="1.1" id="Слой_1" xmlns="http://www.w3.org/2000/svg" xmlns:xlink="http://www.w3.org/1999/xlink" x="0px" y="0px"
	 viewBox="0 0 48 48" style="enable-background:new 0 0 48 48;" xml:space="preserve">
<style type="text/css">
	.st0{fill:#FFFFFF;}
	.st1{fill:#130905;}
	.st2{fill:#F18828;}
	.st3{fill:#1D1D1B;}
</style>
<path class="st0" d="M7.1,12.3h35.1V8.4H7.1c-2.1,0-3.9,1.8-3.9,3.9v23.4c0,2.1,1.8,3.9,3.9,3.9h7.8v-3.9H7.1V12.3"/>
<path class="st0" d="M26.6,24h-7.8v3.5c-1.2,1.1-1.9,2.6-1.9,4.3s0.8,3.3,1.9,4.3v3.5h7.8v-3.5c1.2-1.1,1.9-2.6,1.9-4.3
	c0-1.7-0.8-3.3-1.9-4.3V24"/>
<path class="st1" d="M22.7,34.7c-1.6,0-2.9-1.3-2.9-2.9s1.3-2.9,2.9-2.9s2.9,1.3,2.9,2.9S24.3,34.7,22.7,34.7"/>
<path class="st2" d="M44.2,16.2H32.5c-1,0-2,1-2,1.9v19.5c0,1,1,1.9,2,1.9h11.7c1,0,1.9-1,1.9-1.9V18.1
	C46.1,17.2,45.1,16.2,44.2,16.2"/>
<rect x="34.4" y="20.1" class="st3" width="7.8" height="15.6"/>
</svg>
