<?xml version="1.0" encoding="utf-8"?>
<!-- Generator: Adobe Illustrator 26.0.1, SVG Export Plug-In . SVG Version: 6.00 Build 0)  -->
<svg version="1.1" id="Слой_1" xmlns="http://www.w3.org/2000/svg" xmlns:xlink="http://www.w3.org/1999/xlink" x="0px" y="0px"
	 viewBox="0 0 48 48" style="enable-background:new 0 0 48 48;" xml:space="preserve">
<style type="text/css">
	.st0{fill:#FFFFFF;}
	.st1{fill:#FDC540;}
	.st2{fill:none;}
</style>
<rect x="26.9" y="26" class="st0" width="17.1" height="2.8"/>
<rect x="26.9" y="31.6" class="st1" width="17.1" height="2.8"/>
<rect x="26.9" y="37.3" class="st0" width="17.1" height="2.8"/>
<path class="st0" d="M20.8,10.4c-1.2,0-2.1,1-2.1,2.1s1,2.1,2.1,2.1s2.1-1,2.1-2.1S22,10.4,20.8,10.4z"/>
<rect x="19.3" y="17.6" class="st0" width="2.9" height="12.7"/>
<path class="st0" d="M21.1,6.1c7.9,0,14.3,6.3,14.3,14.2h2.9c0-9.4-7.7-17-17.1-17S4,10.9,4,20.3s7.7,17,17.1,17v-2.8
	c-7.9,0-14.3-6.3-14.3-14.2S13.3,6.1,21.1,6.1z"/>
<rect id="_Transparent_Rectangle_" x="1.1" y="0.5" class="st2" width="45.7" height="45.3"/>
</svg>
