<?xml version="1.0" encoding="utf-8"?>
<!-- Generator: Adobe Illustrator 26.0.1, SVG Export Plug-In . SVG Version: 6.00 Build 0)  -->
<svg version="1.1" id="Слой_1" xmlns="http://www.w3.org/2000/svg" xmlns:xlink="http://www.w3.org/1999/xlink" x="0px" y="0px"
	 viewBox="0 0 48 48" style="enable-background:new 0 0 48 48;" xml:space="preserve">
<style type="text/css">
	.st0{fill:#E52916;}
</style>
<g>
	<path class="st0" d="M23.5,26.1c-0.8,0-1.4-0.6-1.4-1.3l0-22.1c0-0.7,0.6-1.3,1.4-1.3l0,0c0.8,0,1.4,0.6,1.4,1.3l0,22.1
		C24.9,25.5,24.3,26.1,23.5,26.1L23.5,26.1z"/>
	<path class="st0" d="M23.5,46.7C12,46.7,2.6,37.9,2.6,27c0-8.6,5.8-16.1,14.5-18.7c0.8-0.2,1.5,0.2,1.8,0.9
		c0.2,0.7-0.2,1.5-0.9,1.7C10.5,13.1,5.4,19.6,5.4,27c0,9.4,8.1,17,18.1,17s18.1-7.6,18.1-17c0-7.4-5.1-13.9-12.6-16.2
		c-0.8-0.2-1.2-1-0.9-1.7c0.2-0.7,1-1.1,1.8-0.9c8.7,2.6,14.5,10.1,14.5,18.7C44.5,37.9,35.1,46.7,23.5,46.7z"/>
</g>
</svg>
