<?xml version="1.0" encoding="utf-8"?>
<!-- Generator: Adobe Illustrator 26.0.1, SVG Export Plug-In . SVG Version: 6.00 Build 0)  -->
<svg version="1.1" id="Слой_1" xmlns="http://www.w3.org/2000/svg" xmlns:xlink="http://www.w3.org/1999/xlink" x="0px" y="0px"
	 viewBox="0 0 48 48" style="enable-background:new 0 0 48 48;" xml:space="preserve">
<style type="text/css">
	.st0{fill:#FFFFFF;}
	.st1{fill:#FFFFFF;stroke:#FFFFFF;stroke-miterlimit:10;}
</style>
<path class="st0" d="M26.8,45.8c-0.4,0-0.7-0.1-1-0.4L11.7,32.6H6.3c-0.8,0-1.4-0.6-1.4-1.4V16.8c0-0.8,0.6-1.4,1.4-1.4h5.4
	L25.8,2.6c0.6-0.5,1.5-0.5,2,0.1c0.2,0.3,0.4,0.6,0.4,1v40.7C28.2,45.2,27.6,45.8,26.8,45.8z M7.7,29.8h4.5c0.4,0,0.7,0.1,1,0.4
	l12,10.9V6.9l-12,10.9c-0.3,0.2-0.6,0.4-1,0.4H7.7V29.8z"/>
<path class="st0" d="M32.4,30.5c-0.8,0-1.4-0.6-1.4-1.4c0-0.4,0.2-0.7,0.4-1c2.2-2.2,2.2-5.8,0-8.1c-0.6-0.6-0.5-1.5,0-2
	c0.6-0.5,1.4-0.5,2,0c3.4,3.4,3.4,8.8,0,12.1C33.1,30.3,32.8,30.5,32.4,30.5z"/>
<path class="st0" d="M37.5,35.6c-0.8,0-1.4-0.6-1.4-1.4c0-0.4,0.2-0.8,0.4-1c5.1-5,5.1-13.2,0-18.2l0,0c-0.6-0.6-0.6-1.5,0-2
	c0.6-0.6,1.5-0.6,2,0l0,0c6.2,6.2,6.2,16.1,0,22.3l0,0C38.2,35.4,37.9,35.6,37.5,35.6z"/>
<rect x="7" y="17.3" class="st1" width="5.1" height="14.2"/>
</svg>
