<?xml version="1.0" encoding="utf-8"?>
<!-- Generator: Adobe Illustrator 26.0.1, SVG Export Plug-In . SVG Version: 6.00 Build 0)  -->
<svg version="1.1" id="Слой_1" xmlns="http://www.w3.org/2000/svg" xmlns:xlink="http://www.w3.org/1999/xlink" x="0px" y="0px"
	 viewBox="0 0 24 24" style="enable-background:new 0 0 24 24;" xml:space="preserve">
<style type="text/css">
	.st0{fill-rule:evenodd;clip-rule:evenodd;fill:#FFFFFF;}
	.st1{fill-rule:evenodd;clip-rule:evenodd;fill:#F9B342;}
</style>
<path class="st0" d="M13.5,15v0.2c0,0.9-0.8,1.7-1.7,1.7h-0.2c-0.9,0-1.7-0.8-1.7-1.7V15c0-0.9,0.8-1.7,1.7-1.7h0.2
	C12.8,13.3,13.5,14.1,13.5,15z"/>
<path class="st0" d="M12.7,1.9v12.3c0,0.5-0.4,0.9-0.8,0.9h-0.2c-0.5-0.1-0.8-0.4-0.8-0.9V1.9c0-0.5,0.4-0.9,0.8-0.9h0.1
	C12.3,1,12.7,1.4,12.7,1.9z"/>
<path class="st1" d="M12.7,18.4v4.2c0,0.2-0.4,0.3-0.8,0.3h-0.2c-0.5,0-0.8-0.1-0.8-0.3v-4.2c0-0.2,0.4-0.3,0.8-0.3h0.1
	C12.3,18.1,12.7,18.2,12.7,18.4z"/>
<path class="st0" d="M21.1,12.7v0.2c0,0.9-0.8,1.7-1.7,1.7h-0.2c-0.9,0-1.7-0.8-1.7-1.7v-0.2c0-0.9,0.8-1.7,1.7-1.7h0.2
	C20.4,11,21.1,11.7,21.1,12.7z"/>
<path class="st0" d="M20.3,1.8v10.7c0,0.4-0.4,0.8-0.8,0.8h-0.2c-0.5-0.1-0.8-0.4-0.8-0.8V1.8c0-0.4,0.4-0.8,0.8-0.8h0.1
	C19.9,1,20.3,1.4,20.3,1.8z"/>
<path class="st1" d="M20.3,16v6.5c0,0.3-0.4,0.5-0.8,0.5h-0.2c-0.5,0-0.8-0.2-0.8-0.5V16c0-0.3,0.4-0.5,0.8-0.5h0.1
	C19.9,15.6,20.3,15.8,20.3,16z"/>
<path class="st0" d="M6.2,7.8V8c0,0.9-0.8,1.7-1.7,1.7H4.4C3.4,9.7,2.7,8.9,2.7,8V7.8c0-0.9,0.8-1.7,1.7-1.7h0.2
	C5.5,6.1,6.2,6.9,6.2,7.8z"/>
<path class="st0" d="M5.4,1.5v6.7c0,0.3-0.4,0.5-0.8,0.5H4.4c-0.5,0-0.8-0.2-0.8-0.5V1.5C3.6,1.2,4,1,4.4,1h0.1C5,1,5.4,1.2,5.4,1.5
	z"/>
<path class="st1" d="M5.4,11.3v10.8C5.4,22.6,5,23,4.6,23H4.4c-0.5-0.1-0.8-0.4-0.8-0.8V11.3c0-0.4,0.4-0.8,0.8-0.8h0.1
	C5,10.5,5.4,10.9,5.4,11.3z"/>
</svg>
