<?xml version="1.0" ?><svg data-name="Layer 1" height="32" id="Layer_1" viewBox="0 0 32 32" width="32" xmlns="http://www.w3.org/2000/svg"><defs><style>
      .cls-1 {
        fill: none;
      }
    </style></defs><rect height="2" width="12" x="18" y="20"/><rect height="2" width="12" x="18" y="24"/><rect height="2" width="12" x="18" y="28"/><path d="M14,18a1.5,1.5,0,1,0,1.5,1.5A1.5,1.5,0,0,0,14,18Z" transform="translate(0 0)"/><rect height="9" width="2" x="13" y="7"/><path d="M14,4A10.0111,10.0111,0,0,1,24,14h2A12,12,0,1,0,14,26V24A10,10,0,0,1,14,4Z" transform="translate(0 0)"/><rect class="cls-1" data-name="&lt;Transparent Rectangle&gt;" height="32" id="_Transparent_Rectangle_" width="32"/></svg>