<?xml version="1.0" encoding="utf-8"?>
<!-- Generator: Adobe Illustrator 26.0.1, SVG Export Plug-In . SVG Version: 6.00 Build 0)  -->
<svg version="1.1" id="Слой_1" xmlns="http://www.w3.org/2000/svg" xmlns:xlink="http://www.w3.org/1999/xlink" x="0px" y="0px"
	 viewBox="0 0 24 24" style="enable-background:new 0 0 24 24;" xml:space="preserve">
<style type="text/css">
	.st0{fill-rule:evenodd;clip-rule:evenodd;fill:#FFFFFF;}
	.st1{fill-rule:evenodd;clip-rule:evenodd;fill:#E79355;}
</style>
<path class="st0" d="M21.6,5.4H7.1C6.5,5.4,6,5,6,4.6V4.4c0.1-0.5,0.5-0.8,1.1-0.8h14.5c0.6,0,1.1,0.4,1.1,0.8v0.1
	C22.7,5,22.2,5.4,21.6,5.4z"/>
<path class="st0" d="M2.2,5.7H2.1C1.5,5.7,1,5.2,1,4.6V4.4c0-0.6,0.5-1.1,1.1-1.1h0.1c0.6,0,1.1,0.5,1.1,1.1v0.1
	C3.3,5.2,2.8,5.7,2.2,5.7z"/>
<rect x="1" y="10.6" class="st1" width="2.3" height="2.3"/>
<path class="st0" d="M2.2,20.5H2.1C1.5,20.5,1,20,1,19.4v-0.1c0-0.6,0.5-1.1,1.1-1.1h0.1c0.6,0,1.1,0.5,1.1,1.1v0.1
	C3.3,20,2.8,20.5,2.2,20.5z"/>
<path class="st0" d="M21.6,12.7H7.1c-0.6,0-1.1-0.4-1.1-0.8v-0.2c0.1-0.5,0.5-0.8,1.1-0.8h14.5c0.6,0,1.1,0.4,1.1,0.8v0.1
	C22.7,12.3,22.2,12.7,21.6,12.7z"/>
<path class="st0" d="M21.6,20.3H7.1c-0.6,0-1.1-0.4-1.1-0.8v-0.2c0.1-0.5,0.5-0.8,1.1-0.8h14.5c0.6,0,1.1,0.4,1.1,0.8v0.1
	C22.7,19.9,22.2,20.3,21.6,20.3z"/>
</svg>
