<?xml version="1.0" encoding="utf-8"?>
<!-- Generator: Adobe Illustrator 26.0.1, SVG Export Plug-In . SVG Version: 6.00 Build 0)  -->
<svg version="1.1" id="Layer_1" xmlns="http://www.w3.org/2000/svg" xmlns:xlink="http://www.w3.org/1999/xlink" x="0px" y="0px"
	 viewBox="0 0 64 64" style="enable-background:new 0 0 64 64;" xml:space="preserve">
<style type="text/css">
	.st0{fill:#EFCC00;}
	.st1{fill:#353535;}
</style>
<path class="st0" d="M30.2,11.5L6.8,51.9c-0.6,1-0.2,2.3,0.8,2.9c0.3,0.2,0.7,0.3,1.1,0.3h46.6c1.2,0,2.1-1,2.1-2.1
	c0-0.4-0.1-0.7-0.3-1.1L33.8,11.5c-0.6-1-1.9-1.4-2.9-0.8C30.6,10.9,30.3,11.2,30.2,11.5z"/>
<path class="st1" d="M29,46c0-1.8,1.6-3.3,3.5-3c1.2,0.2,2.2,1.2,2.4,2.4c0.3,1.9-1.1,3.5-3,3.5c-1.6,0.1-2.9-1.2-3-2.8
	C29,46.2,29,46.1,29,46z M30,40.4l-0.7-13c0-0.6,0.4-1.1,1-1.1h3.2c0.6,0,1,0.5,1,1l-0.6,13c0,0.5-0.5,0.9-1,0.9H31
	C30.5,41.3,30.1,40.9,30,40.4z"/>
</svg>
