<?xml version="1.0" encoding="utf-8"?>
<!-- Generator: Adobe Illustrator 26.0.1, SVG Export Plug-In . SVG Version: 6.00 Build 0)  -->
<svg version="1.1" id="Слой_1" xmlns="http://www.w3.org/2000/svg" xmlns:xlink="http://www.w3.org/1999/xlink" x="0px" y="0px"
	 viewBox="0 0 48 48" style="enable-background:new 0 0 48 48;" xml:space="preserve">
<style type="text/css">
	.st0{fill:none;stroke:#000000;stroke-width:2;stroke-miterlimit:10;}
	.st1{fill:#FFFFFF;stroke:#000000;stroke-miterlimit:10;}
	.st2{fill-rule:evenodd;clip-rule:evenodd;fill:#FF2D0A;stroke:#000000;stroke-miterlimit:10;}
	.st3{fill-rule:evenodd;clip-rule:evenodd;fill:#FF0000;stroke:#000000;stroke-width:2;stroke-miterlimit:10;}
</style>
<path class="st0" d="M55.6,14.3"/>
<path class="st1" d="M0,8.9"/>
<path class="st2" d="M-6.5,42.2"/>
<path class="st2" d="M37.8,16.7"/>
<path class="st2" d="M-28.5-6.2"/>
<path class="st3" d="M3.6,24.8l3.7-3.7c1-1,2.6-1,3.6,0l5.6,5.6c1,1,2.6,1,3.6,0l17-17c1-1,2.6-1,3.6,0l3.7,3.7c1,1,1,2.6,0,3.6
	L20,41.2c-1,1-2.6,1-3.6,0L3.6,28.4C2.6,27.4,2.6,25.8,3.6,24.8z"/>
</svg>
