<?xml version="1.0" encoding="utf-8"?>
<!-- Generator: Adobe Illustrator 26.0.1, SVG Export Plug-In . SVG Version: 6.00 Build 0)  -->
<svg version="1.1" id="Слой_1" xmlns="http://www.w3.org/2000/svg" xmlns:xlink="http://www.w3.org/1999/xlink" x="0px" y="0px"
	 viewBox="0 0 48 48" style="enable-background:new 0 0 48 48;" xml:space="preserve">
<style type="text/css">
	.st0{fill:none;stroke:#000000;stroke-width:2;stroke-miterlimit:10;}
	.st1{fill:#E52916;}
	.st2{fill:none;}
	.st3{fill:#E91A00;stroke:#E91A00;stroke-width:2;stroke-miterlimit:10;}
</style>
<path class="st0" d="M55.6,14.3"/>
<path class="st1" d="M24,43.1c-9.5,0-17.4-7.7-17.4-17.2c0-7.5,4.8-14.1,12.1-16.3c0.7-0.2,1.2,0.2,1.5,0.8c0.2,0.6-0.2,1.3-0.8,1.5
	c-6.3,1.9-10.5,7.6-10.5,14.1c0,8.3,6.7,14.9,15.1,14.9s15.1-6.6,15.1-14.9c0-6.4-4.3-12.1-10.5-14.2c-0.7-0.2-1-0.9-0.8-1.5
	c0.2-0.6,0.9-0.9,1.5-0.8c7.3,2.2,12.1,8.9,12.1,16.3C41.5,35.5,33.7,43.1,24,43.1z"/>
<line class="st2" x1="63.5" y1="17.6" x2="55.2" y2="-82.1"/>
<path class="st3" d="M22.9-2.7"/>
<path class="st1" d="M23.8,21c-0.8,0-1.4-0.4-1.4-0.9V5c0-0.5,0.6-0.9,1.4-0.9l0,0c0.8,0,1.4,0.4,1.4,0.9v15.1
	C25.2,20.5,24.6,21,23.8,21L23.8,21z"/>
</svg>
