<?xml version="1.0" encoding="utf-8"?>
<!-- Generator: Adobe Illustrator 26.0.1, SVG Export Plug-In . SVG Version: 6.00 Build 0)  -->
<svg version="1.1" id="Слой_1" xmlns="http://www.w3.org/2000/svg" xmlns:xlink="http://www.w3.org/1999/xlink" x="0px" y="0px"
	 viewBox="0 0 48 48" style="enable-background:new 0 0 48 48;" xml:space="preserve">
<style type="text/css">
	.st0{fill:none;stroke:#000000;stroke-width:2;stroke-miterlimit:10;}
	.st1{fill:#FFFFFF;stroke:#000000;stroke-miterlimit:10;}
	.st2{fill-rule:evenodd;clip-rule:evenodd;fill:#FF2D0A;stroke:#000000;stroke-miterlimit:10;}
	.st3{fill-rule:evenodd;clip-rule:evenodd;fill:#3C8080;stroke:#FFFFFF;stroke-width:2;stroke-miterlimit:10;}
	.st4{fill-rule:evenodd;clip-rule:evenodd;fill:#FFFFFF;stroke:#FFFFFF;stroke-width:2;stroke-miterlimit:10;}
</style>
<path class="st0" d="M55.6,14.3"/>
<path class="st1" d="M0,8.9"/>
<path class="st2" d="M-6.5,42.2"/>
<path class="st2" d="M37.8,16.7"/>
<path class="st2" d="M-28.5-6.2"/>
<circle class="st3" cx="24" cy="24" r="21.7"/>
<path class="st4" d="M30.7,35.1h-2.3c-0.6,0-1-0.4-1-1V15.3c0-0.6,0.4-1,1-1h2.3c0.6,0,1,0.4,1,1v18.8
	C31.7,34.7,31.2,35.1,30.7,35.1z"/>
<path class="st4" d="M20.3,35.1H18c-0.6,0-1-0.4-1-1V15.3c0-0.6,0.4-1,1-1h2.3c0.6,0,1,0.4,1,1v18.8C21.3,34.7,20.8,35.1,20.3,35.1z
	"/>
</svg>
