<?xml version="1.0" encoding="utf-8"?>
<!-- Generator: Adobe Illustrator 26.0.1, SVG Export Plug-In . SVG Version: 6.00 Build 0)  -->
<svg version="1.1" id="Слой_1" xmlns="http://www.w3.org/2000/svg" xmlns:xlink="http://www.w3.org/1999/xlink" x="0px" y="0px"
	 viewBox="0 0 48 48" style="enable-background:new 0 0 48 48;" xml:space="preserve">
<style type="text/css">
	.st0{fill:none;stroke:#FFFFFF;stroke-width:2;stroke-miterlimit:10;}
	.st1{fill:#41AB34;}
</style>
<ellipse class="st0" cx="24" cy="24" rx="19.7" ry="20.3"/>
<path class="st1" d="M20.4,34.3h-2.1c-0.5,0-0.8-0.4-0.8-0.8V16c0-0.5,0.4-0.8,0.8-0.8h2.1c0.5,0,0.8,0.4,0.8,0.8v17.4
	C21.2,33.9,20.9,34.3,20.4,34.3z"/>
<path class="st1" d="M28.9,34.3h-2.1c-0.5,0-0.8-0.4-0.8-0.8V16c0-0.5,0.4-0.8,0.8-0.8h2.1c0.5,0,0.8,0.4,0.8,0.8v17.4
	C29.7,33.9,29.4,34.3,28.9,34.3z"/>
</svg>
