<?xml version="1.0" encoding="utf-8"?>
<!-- Generator: Adobe Illustrator 26.0.1, SVG Export Plug-In . SVG Version: 6.00 Build 0)  -->
<svg version="1.1" id="Слой_1" xmlns="http://www.w3.org/2000/svg" xmlns:xlink="http://www.w3.org/1999/xlink" x="0px" y="0px"
	 viewBox="0 0 48 48" style="enable-background:new 0 0 48 48;" xml:space="preserve">
<style type="text/css">
	.st0{fill:#1D1D1B;stroke:#FFFFFF;stroke-width:2;stroke-miterlimit:10;}
	.st1{fill-rule:evenodd;clip-rule:evenodd;fill:#009640;stroke:#FFFFFF;stroke-width:2;stroke-miterlimit:10;}
	.st2{fill-rule:evenodd;clip-rule:evenodd;fill:#009640;stroke:#5EB130;stroke-width:2;stroke-miterlimit:10;}
	.st3{fill-rule:evenodd;clip-rule:evenodd;fill:#FFFFFF;stroke:#EC6520;stroke-width:2;stroke-miterlimit:10;}
</style>
<path class="st0" d="M40.5,43h-33C6.1,43,5,41.5,5,39.7V8.3C5,6.4,6.1,5,7.5,5h33C41.9,5,43,6.5,43,8.3v31.4
	C42.9,41.5,41.8,43,40.5,43z"/>
<path class="st1" d="M9.9,14.7v-0.3c0-0.3,0.3-0.6,0.6-0.6h26.6c0.3,0,0.6,0.3,0.6,0.6v0.3c0,0.3-0.3,0.6-0.6,0.6H10.5
	C10.2,15.3,9.9,15,9.9,14.7z"/>
<path class="st2" d="M9.9,24.1v-0.3c0-0.3,0.3-0.6,0.6-0.6h26.6c0.3,0,0.6,0.3,0.6,0.6v0.3c0,0.3-0.3,0.6-0.6,0.6H10.5
	C10.2,24.6,9.9,24.5,9.9,24.1z"/>
<path class="st3" d="M9.9,33.6v-0.3c0-0.3,0.3-0.6,0.6-0.6h26.6c0.3,0,0.6,0.3,0.6,0.6v0.3c0,0.3-0.3,0.6-0.6,0.6H10.5
	C10.2,34.1,9.9,33.9,9.9,33.6z"/>
</svg>
