<?xml version="1.0" encoding="utf-8"?>
<!-- Generator: Adobe Illustrator 26.0.1, SVG Export Plug-In . SVG Version: 6.00 Build 0)  -->
<svg version="1.1" id="Слой_1" xmlns="http://www.w3.org/2000/svg" xmlns:xlink="http://www.w3.org/1999/xlink" x="0px" y="0px"
	 viewBox="0 0 48 48" style="enable-background:new 0 0 48 48;" xml:space="preserve">
<style type="text/css">
	.st0{fill:none;stroke:#000000;stroke-width:2;stroke-miterlimit:10;}
	.st1{fill:#E52916;}
	.st2{fill:none;}
	.st3{fill:#E91A00;stroke:#E91A00;stroke-width:2;stroke-miterlimit:10;}
</style>
<path class="st0" d="M55.6,14.3"/>
<path class="st1" d="M23.9,44.9C13,44.9,4,36,4,24.9c0-8.7,5.5-16.4,13.8-19c0.8-0.2,1.4,0.2,1.7,0.9c0.2,0.7-0.2,1.5-0.9,1.7
	c-7.2,2.2-12,8.8-12,16.4c0,9.6,7.7,17.3,17.3,17.3s17.3-7.7,17.3-17.3c0-7.5-4.9-14.1-12-16.5c-0.8-0.2-1.1-1-0.9-1.7
	c0.2-0.7,1-1.1,1.7-0.9c8.3,2.6,13.8,10.3,13.8,19C43.9,36,35,44.9,23.9,44.9z"/>
<line class="st2" x1="63.5" y1="17.6" x2="55.2" y2="-82.1"/>
<path class="st3" d="M22.9-2.7"/>
<path class="st1" d="M23.8,17.9c-0.8,0-1.4-0.4-1.4-0.9V1.9C22.4,1.4,23,1,23.8,1l0,0c0.8,0,1.4,0.4,1.4,0.9V17
	C25.2,17.4,24.6,17.9,23.8,17.9L23.8,17.9z"/>
</svg>
