<?xml version="1.0" encoding="utf-8"?>
<!-- Generator: Adobe Illustrator 26.0.1, SVG Export Plug-In . SVG Version: 6.00 Build 0)  -->
<svg version="1.1" id="Слой_1" xmlns="http://www.w3.org/2000/svg" xmlns:xlink="http://www.w3.org/1999/xlink" x="0px" y="0px"
	 viewBox="0 0 48 48" style="enable-background:new 0 0 48 48;" xml:space="preserve">
<style type="text/css">
	.st0{fill:#1D1D1B;stroke:#FFFFFF;stroke-width:2;stroke-miterlimit:10;}
	.st1{fill-rule:evenodd;clip-rule:evenodd;fill:#FFFFFF;stroke:#FFFFFF;stroke-width:2;stroke-miterlimit:10;}
	.st2{fill-rule:evenodd;clip-rule:evenodd;fill:#009640;stroke:#FFFFFF;stroke-width:2;stroke-miterlimit:10;}
</style>
<path class="st0" d="M40.5,43h-33c-1.4,0-2.5-1.5-2.5-3.3V8.3C4.9,6.5,6,5,7.4,5h33c1.4,0,2.5,1.5,2.5,3.3v31.4
	C42.8,41.5,41.8,43,40.5,43z"/>
<circle class="st1" cx="23.9" cy="24.3" r="4.8"/>
<path class="st2" d="M24,15.3h-0.3c-0.3,0-0.6-0.3-0.6-0.6v-4c0-0.3,0.3-0.6,0.6-0.6H24c0.3,0,0.6,0.3,0.6,0.6v4
	C24.5,15,24.3,15.3,24,15.3z"/>
<path class="st2" d="M24,38.5h-0.3c-0.3,0-0.6-0.3-0.6-0.6v-4c0-0.3,0.3-0.6,0.6-0.6H24c0.3,0,0.6,0.3,0.6,0.6v4
	C24.5,38.2,24.3,38.5,24,38.5z"/>
<path class="st2" d="M32.9,24.5v-0.3c0-0.3,0.3-0.6,0.6-0.6h4c0.3,0,0.6,0.3,0.6,0.6v0.3c0,0.3-0.3,0.6-0.6,0.6h-4
	C33.1,25.1,32.9,24.8,32.9,24.5z"/>
<path class="st2" d="M9.5,24.4v-0.3c0-0.3,0.3-0.6,0.6-0.6h4c0.3,0,0.6,0.3,0.6,0.6v0.3c0,0.3-0.3,0.6-0.6,0.6h-4
	C9.8,25,9.5,24.7,9.5,24.4z"/>
</svg>
