<?xml version="1.0" encoding="utf-8"?>
<!-- Generator: Adobe Illustrator 26.0.1, SVG Export Plug-In . SVG Version: 6.00 Build 0)  -->
<svg version="1.1" id="Слой_1" xmlns="http://www.w3.org/2000/svg" xmlns:xlink="http://www.w3.org/1999/xlink" x="0px" y="0px"
	 viewBox="0 0 48 48" style="enable-background:new 0 0 48 48;" xml:space="preserve">
<style type="text/css">
	.st0{fill:#1D1D1B;stroke:#FFFFFF;stroke-width:2;stroke-miterlimit:10;}
	.st1{fill-rule:evenodd;clip-rule:evenodd;fill:#009640;stroke:#FFFFFF;stroke-width:2;stroke-miterlimit:10;}
</style>
<path class="st0" d="M41.6,43h-33c-1.4,0-2.5-1.5-2.5-3.3V8.3C6.1,6.5,7.2,5,8.6,5h33c1.4,0,2.5,1.5,2.5,3.3v31.4
	C44,41.5,42.9,43,41.6,43z"/>
<path class="st1" d="M29.1,34.6v-0.3c0-0.3,0.3-0.6,0.6-0.6h8c0.3,0,0.6,0.3,0.6,0.6v0.3c0,0.3-0.3,0.6-0.6,0.6h-8
	C29.3,35.2,29.1,34.9,29.1,34.6z"/>
<path class="st1" d="M33.8,39h-0.3c-0.3,0-0.6-0.3-0.6-0.6v-8c0-0.3,0.3-0.6,0.6-0.6h0.3c0.3,0,0.6,0.3,0.6,0.6v8
	C34.3,38.8,34.1,39,33.8,39z"/>
<path class="st1" d="M11,13.6v-0.3c0-0.3,0.3-0.6,0.6-0.6h26.6c0.3,0,0.6,0.3,0.6,0.6v0.3c0,0.3-0.3,0.6-0.6,0.6H11.5
	C11.2,14.1,11,13.9,11,13.6z"/>
<path class="st1" d="M11.1,34.1v-0.3c0-0.3,0.3-0.6,0.6-0.6h12.6c0.3,0,0.6,0.3,0.6,0.6v0.3c0,0.3-0.3,0.6-0.6,0.6H11.7
	C11.4,34.7,11.1,34.4,11.1,34.1z"/>
<path class="st1" d="M11,23.7v-0.3c0-0.3,0.3-0.6,0.6-0.6h26.6c0.3,0,0.6,0.3,0.6,0.6v0.3c0,0.3-0.3,0.6-0.6,0.6H11.5
	C11.2,24.2,11,24,11,23.7z"/>
</svg>
