<?xml version="1.0" encoding="utf-8"?>
<!-- Generator: Adobe Illustrator 26.0.1, SVG Export Plug-In . SVG Version: 6.00 Build 0)  -->
<svg version="1.1" id="Слой_1" xmlns="http://www.w3.org/2000/svg" xmlns:xlink="http://www.w3.org/1999/xlink" x="0px" y="0px"
	 viewBox="0 0 48 48" style="enable-background:new 0 0 48 48;" xml:space="preserve">
<style type="text/css">
	.st0{fill:#1D1D1B;stroke:#FFFFFF;stroke-width:2;stroke-miterlimit:10;}
	.st1{fill-rule:evenodd;clip-rule:evenodd;fill:#009640;stroke:#FFFFFF;stroke-width:2;stroke-miterlimit:10;}
	.st2{fill-rule:evenodd;clip-rule:evenodd;fill:#009640;}
</style>
<path class="st0" d="M40.5,43h-33C6.1,43,5,41.5,5,39.7V8.3C5,6.5,6.1,5,7.5,5h33C41.9,5,43,6.5,43,8.3v31.4
	C42.9,41.5,41.8,43,40.5,43z"/>
<path class="st1" d="M28.8,24.1v-0.3c0-0.3,0.3-0.6,0.6-0.6h8c0.3,0,0.6,0.3,0.6,0.6v0.3c0,0.3-0.3,0.6-0.6,0.6h-8
	C29,24.7,28.8,24.4,28.8,24.1z"/>
<path class="st1" d="M28.8,23.7l0.2-0.2c0.2-0.2,0.6-0.2,0.8,0l4,4.6c0.2,0.2,0.2,0.6,0,0.8l-0.2,0.2c-0.2,0.2-0.6,0.2-0.8,0l-4-4.6
	C28.6,24.3,28.6,23.9,28.8,23.7z"/>
<path class="st1" d="M29,24.4l-0.2-0.2c-0.2-0.2-0.2-0.6,0-0.8l4.1-4.4c0.2-0.2,0.6-0.2,0.8,0l0.2,0.2c0.2,0.2,0.2,0.6,0,0.8
	l-4.1,4.4C29.6,24.6,29.2,24.6,29,24.4z"/>
<path class="st2" d="M24.3,24.8l-9.8,6.7c-0.8,0.6-2,0.1-2-0.8V17.2c0-0.9,1.2-1.4,2-0.8l9.8,6.7C24.9,23.5,24.9,24.4,24.3,24.8z"/>
</svg>
