<?xml version="1.0" encoding="utf-8"?>
<!-- Generator: Adobe Illustrator 26.0.1, SVG Export Plug-In . SVG Version: 6.00 Build 0)  -->
<svg version="1.1" id="Слой_1" xmlns="http://www.w3.org/2000/svg" xmlns:xlink="http://www.w3.org/1999/xlink" x="0px" y="0px"
	 viewBox="0 0 48 48" style="enable-background:new 0 0 48 48;" xml:space="preserve">
<style type="text/css">
	.st0{fill:#1D1D1B;stroke:#FFFFFF;stroke-width:2;stroke-miterlimit:10;}
	.st1{fill-rule:evenodd;clip-rule:evenodd;fill:#009640;stroke:#FFFFFF;stroke-width:2;stroke-miterlimit:10;}
</style>
<path class="st0" d="M40.5,43h-33C6.1,43,5,41.5,5,39.7V8.3C5,6.5,6.1,5,7.5,5h33C41.9,5,43,6.5,43,8.3v31.4
	C42.9,41.5,41.8,43,40.5,43z"/>
<path class="st1" d="M37.7,24l0,0.3c0,0.3-0.3,0.6-0.6,0.6l-8,0c-0.3,0-0.6-0.3-0.6-0.6l0-0.3c0-0.3,0.3-0.6,0.6-0.6l8,0
	C37.6,23.4,37.8,23.7,37.7,24z"/>
<path class="st1" d="M37.7,24.4l-0.2,0.2c-0.2,0.2-0.6,0.2-0.8,0l-4-4.6c-0.2-0.2-0.2-0.6,0-0.8l0.2-0.2c0.2-0.2,0.6-0.2,0.8,0
	l4,4.6C38,23.8,37.9,24.2,37.7,24.4z"/>
<path class="st1" d="M37.6,23.7l0.2,0.2c0.2,0.2,0.2,0.6,0,0.8l-4.1,4.4c-0.2,0.2-0.6,0.2-0.8,0l-0.2-0.2c-0.2-0.2-0.2-0.6,0-0.8
	l4.1-4.4C37,23.5,37.4,23.5,37.6,23.7z"/>
<path class="st1" d="M10.1,12.8v-0.3c0-0.3,0.3-0.6,0.6-0.6h26.6c0.3,0,0.6,0.3,0.6,0.6v0.3c0,0.3-0.3,0.6-0.6,0.6H10.7
	C10.4,13.4,10.1,13.1,10.1,12.8z"/>
<path class="st1" d="M10.1,35.8v-0.3c0-0.3,0.3-0.6,0.6-0.6h26.6c0.3,0,0.6,0.3,0.6,0.6v0.3c0,0.3-0.3,0.6-0.6,0.6H10.7
	C10.4,36.4,10.1,36.1,10.1,35.8z"/>
<path class="st1" d="M10.1,24.1v-0.3c0-0.3,0.3-0.6,0.6-0.6h12.6c0.3,0,0.6,0.3,0.6,0.6v0.3c0,0.3-0.3,0.6-0.6,0.6H10.7
	C10.4,24.8,10.1,24.5,10.1,24.1z"/>
</svg>
