<?xml version="1.0" encoding="utf-8"?>
<!-- Generator: Adobe Illustrator 26.0.1, SVG Export Plug-In . SVG Version: 6.00 Build 0)  -->
<svg version="1.1" id="Слой_1" xmlns="http://www.w3.org/2000/svg" xmlns:xlink="http://www.w3.org/1999/xlink" x="0px" y="0px"
	 viewBox="0 0 48 48" style="enable-background:new 0 0 48 48;" xml:space="preserve">
<style type="text/css">
	.st0{fill:none;stroke:#000000;stroke-width:2;stroke-miterlimit:10;}
	.st1{fill-rule:evenodd;clip-rule:evenodd;fill:#C10000;}
	.st2{fill-rule:evenodd;clip-rule:evenodd;fill:#009640;}
</style>
<path class="st0" d="M55.6,14.3"/>
<path class="st1" d="M9.4,18.9L22.9,5.4c0.3-0.3,0.7-0.3,1,0l3.5,3.4c0.3,0.3,0.3,0.7,0,1L13.9,23.3c-0.3,0.3-0.7,0.3-1,0l-3.5-3.4
	C9,19.5,9,18.9,9.4,18.9z"/>
<path class="st2" d="M14.6,38.5L40.1,13c0.3-0.3,1-0.7,1.4-0.3l3.5,3.4c0.3,0.3,0,1-0.3,1.4L19.1,42.9c-0.3,0.3-1,0.7-1.4,0.3
	l-3.5-3.4C13.9,39.5,13.9,38.8,14.6,38.5z"/>
<path class="st2" d="M8.7,25.4l13.5,13.4c0.3,0.3,0.3,0.7,0,1l-3.5,3.4c-0.3,0.3-0.7,0.3-1,0L4.2,30.2c-0.3-0.3-0.3-0.7,0-1l3.5-3.4
	C8,25.4,8.3,25.4,8.7,25.4z"/>
<path class="st1" d="M13.9,5.1L27,18.5c0.3,0.3,0.3,0.7,0,1L23.6,23c-0.3,0.3-0.7,0.3-1,0L9.4,9.9C9,9.6,9,9.2,9.4,8.9l3.5-3.4
	C13.2,5.1,13.5,5.1,13.9,5.1z"/>
</svg>
