<?xml version="1.0" encoding="utf-8"?>
<!-- Generator: Adobe Illustrator 26.0.1, SVG Export Plug-In . SVG Version: 6.00 Build 0)  -->
<svg version="1.1" id="Слой_1" xmlns="http://www.w3.org/2000/svg" xmlns:xlink="http://www.w3.org/1999/xlink" x="0px" y="0px"
	 viewBox="0 0 48 48" style="enable-background:new 0 0 48 48;" xml:space="preserve">
<style type="text/css">
	.st0{fill:none;stroke:#000000;stroke-width:2;stroke-miterlimit:10;}
	.st1{fill-rule:evenodd;clip-rule:evenodd;fill:#009640;}
</style>
<path class="st0" d="M55.6,14.3"/>
<path class="st1" d="M14,41.8l25.6-25.5c0.3-0.3,1-0.7,1.4-0.3l3.5,3.4c0.3,0.3,0,1-0.3,1.4L18.5,46.2c-0.3,0.3-1,0.7-1.4,0.3
	l-3.5-3.4C13.3,42.8,13.3,42.1,14,41.8z"/>
<path class="st1" d="M8.2,28.7l13.5,13.4c0.3,0.3,0.3,0.7,0,1l-3.5,3.4c-0.3,0.3-0.7,0.3-1,0L3.7,33.5c-0.3-0.3-0.3-0.7,0-1L7.1,29
	C7.5,28.7,7.8,28.7,8.2,28.7z"/>
<path class="st1" d="M14,27.1L39.6,1.6C40,1.3,40.7,1,41,1.3l3.5,3.4c0.3,0.3,0,1-0.3,1.4L18.5,31.6c-0.3,0.3-1,0.7-1.4,0.3
	l-3.5-3.4C13.3,28.1,13.3,27.4,14,27.1z"/>
<path class="st1" d="M8.2,14l13.5,13.4c0.3,0.3,0.3,0.7,0,1l-3.5,3.4c-0.3,0.3-0.7,0.3-1,0L3.7,18.8c-0.3-0.3-0.3-0.7,0-1l3.5-3.4
	C7.5,14,7.8,14,8.2,14z"/>
</svg>
