<?xml version="1.0" encoding="utf-8"?>
<!-- Generator: Adobe Illustrator 26.0.1, SVG Export Plug-In . SVG Version: 6.00 Build 0)  -->
<svg version="1.1" id="Слой_1" xmlns="http://www.w3.org/2000/svg" xmlns:xlink="http://www.w3.org/1999/xlink" x="0px" y="0px"
	 viewBox="0 0 48 48" style="enable-background:new 0 0 48 48;" xml:space="preserve">
<style type="text/css">
	.st0{fill:none;stroke:#000000;stroke-width:2;stroke-miterlimit:10;}
	.st1{fill:none;stroke:#FFFFFF;stroke-width:2;stroke-miterlimit:10;}
	.st2{fill-rule:evenodd;clip-rule:evenodd;fill:#C10000;}
</style>
<path class="st0" d="M55.6,14.3"/>
<ellipse class="st1" cx="24" cy="24" rx="19.7" ry="20.3"/>
<path class="st2" d="M15.6,28.3l12.6-12.7c0.3-0.3,0.6-0.3,1,0l3.2,3.2c0.3,0.3,0.3,0.6,0,1L19.8,32.5c-0.3,0.3-0.6,0.3-1,0
	l-3.2-3.2C15.3,28.9,15.3,28.3,15.6,28.3z"/>
<path class="st2" d="M19.8,15.3L32.1,28c0.3,0.3,0.3,0.6,0,1l-3.2,3.2c-0.3,0.3-0.6,0.3-1,0L15.6,19.8c-0.3-0.3-0.3-0.6,0-1l3.2-3.2
	C19.2,15.3,19.5,15.3,19.8,15.3z"/>
</svg>
