<?xml version="1.0" encoding="utf-8"?>
<!-- Generator: Adobe Illustrator 26.0.1, SVG Export Plug-In . SVG Version: 6.00 Build 0)  -->
<svg version="1.1" id="Слой_1" xmlns="http://www.w3.org/2000/svg" xmlns:xlink="http://www.w3.org/1999/xlink" x="0px" y="0px"
	 viewBox="0 0 48 48" style="enable-background:new 0 0 48 48;" xml:space="preserve">
<style type="text/css">
	.st0{fill:#FFFFFF;}
	.st1{fill:#00FF00;}
	.st2{fill:#555555;}
</style>
<g>
	<path class="st0" d="M44.9,24.8v-2.7H25.4V18h4.9c1.2,0,2.1-0.9,2.1-2V5.2c0-1.1-0.9-2-2.1-2H17.7c-1.2,0-2.1,0.9-2.1,2V16
		c0,1.1,0.9,2,2.1,2h4.9v4.1H3.1v2.7h7v4.1H5.3c-1.2,0-2.1,0.9-2.1,2v10.8c0,1.1,0.9,2,2.1,2h12.4c1.2,0,2.1-0.9,2.1-2V30.9
		c0-1.1-0.9-2-2.1-2h-4.9v-4.1h22.3v4.1h-4.9c-1.2,0-2.1,0.9-2.1,2v10.8c0,1.1,0.9,2,2.1,2h12.5c1.2,0,2.1-0.9,2.1-2V30.9
		c0-1.1-0.9-2-2.1-2h-4.9v-4.1H44.9z"/>
	<rect x="18.4" y="5.9" class="st2" width="11.1" height="9.5"/>
	<rect x="6" y="31.6" class="st2" width="11" height="9.5"/>
	<rect x="31" y="31.6" class="st2" width="11.1" height="9.5"/>
</g>
</svg>
