<?xml version="1.0" encoding="utf-8"?>
<!-- Generator: Adobe Illustrator 26.0.1, SVG Export Plug-In . SVG Version: 6.00 Build 0)  -->
<svg version="1.1" id="Слой_1" xmlns="http://www.w3.org/2000/svg" xmlns:xlink="http://www.w3.org/1999/xlink" x="0px" y="0px"
	 viewBox="0 0 48 48" style="enable-background:new 0 0 48 48;" xml:space="preserve">
<style type="text/css">
	.st0{fill:#FFFFFF;}
	.st1{fill:#FFFFFF;stroke:#FFFFFF;stroke-miterlimit:10;}
</style>
<path class="st0" d="M26.8,45.8c-0.4,0-0.7-0.1-1-0.4L11.7,32.6H6.3c-0.8,0-1.4-0.6-1.4-1.4V16.8c0-0.8,0.6-1.4,1.4-1.4h5.4
	L25.8,2.6c0.6-0.5,1.5-0.5,2,0.1c0.2,0.3,0.4,0.6,0.4,1v40.7C28.2,45.2,27.6,45.8,26.8,45.8z M7.7,29.8h4.5c0.4,0,0.7,0.1,1,0.4
	l12,10.9V6.9l-12,10.9c-0.3,0.2-0.6,0.4-1,0.4H7.7V29.8z"/>
<path class="st0" d="M33.2,30.8c-0.8,0-1.4-0.6-1.4-1.4c0-0.4,0.2-0.7,0.4-1c2.2-2.2,2.2-5.8,0-8.1c-0.6-0.6-0.5-1.5,0-2
	c0.6-0.5,1.4-0.5,2,0c3.4,3.4,3.4,8.8,0,12.1C33.9,30.6,33.6,30.8,33.2,30.8z"/>
<rect x="7" y="17.3" class="st1" width="5.1" height="14.2"/>
<rect x="21.5" y="6.9" class="st1" width="5.1" height="34.2"/>
<rect x="18.1" y="11" class="st1" width="5.1" height="25.6"/>
<rect x="14.2" y="13.8" class="st1" width="5.1" height="20"/>
<rect x="9.6" y="18.2" class="st1" width="5.1" height="14.2"/>
</svg>
